<svg fill="none" height="114" viewBox="0 0 184 114" width="184" xmlns="http://www.w3.org/2000/svg"><path d="M0 0H184V114H0V0Z" fill="#ffffff"/><path clip-rule="evenodd" d="M43.2136 45.2007C43.1972 44.3856 43.3434 43.5766 43.6417 42.8327 43.9401 42.0888 44.3829 41.4286 44.9381 40.9003 45.7827 40.2098 46.8093 39.8545 47.8549 39.8908 48.9006 39.9272 49.9055 40.3531 50.7101 41.101 51.2038 41.6373 51.593 42.282 51.8533 42.9946 52.1136 43.7072 52.2394 44.4723 52.2228 45.2418 52.2419 54.6407 52.2419 64.0408 52.2228 73.4424 52.2356 74.6378 52.0193 75.8224 51.5884 76.9165 51.1576 78.0106 50.5221 78.9887 49.7249 79.785 48.0933 81.1951 46.0742 81.927 44.0132 81.8552 41.9523 81.7835 39.9778 80.9125 38.4278 79.3916 37.7156 78.5902 37.1531 77.6384 36.7729 76.5915 36.3928 75.5447 36.2026 74.4237 36.2134 73.2938 36.1838 62.2133 36.243 51.1328 36.2134 40.0513 36.2294 39.0232 36.0337 38.0047 35.6415 37.0747 35.2492 36.1448 34.671 35.3282 33.9514 34.6882 31.4777 32.6208 27.2598 32.8817 25.2285 35.5914 24.3642 36.8163 23.9046 38.3375 23.9275 39.8978 23.9024 49.3013 23.8593 58.7048 23.9275 68.1083 23.9291 68.3773 23.9495 68.6458 23.9885 68.9112 24.0271 69.3302 24.1441 69.7354 24.3319 70.1004 24.5196 70.4655 24.7739 70.7824 25.0783 71.0303 25.3827 71.2783 25.7303 71.4519 26.0986 71.5398 26.4668 71.6277 26.8475 71.628 27.2159 71.5406 27.8415 71.2761 28.3739 70.7927 28.734 70.1622 29.0941 69.5318 29.2624 68.7882 29.214 68.0421V39.6559C29.2388 39.4103 29.3331 39.18 29.4832 38.9986L29.7855 38.7978 30.1444 38.7266 30.5033 38.7978 30.8057 38.9986 31.0067 39.2996 31.0785 39.6549C31.0785 49.1307 31.0982 58.6085 31.0785 68.0853 31.1056 69.0972 30.8771 70.0972 30.4193 70.9706 29.9614 71.8439 29.2927 72.5552 28.4899 73.0229 27.6272 73.4504 26.6685 73.5737 25.7416 73.3765 24.8146 73.1793 23.9633 72.6708 23.3012 71.9189 22.4868 70.8683 22.047 69.5188 22.0657 68.1284 21.9993 58.7138 22.0406 49.3013 22.0657 39.8877 22.0521 38.6922 22.2681 37.5073 22.699 36.4131 23.1299 35.3189 23.7658 34.3409 24.5636 33.5451 27.8664 30.3939 34.0735 30.8666 36.7266 35.0655 37.626 36.5409 38.096 38.2909 38.0724 40.0764 38.2869 41.1512 38.059 68.2478 38.0724 73.2788 38.0533 74.3073 38.2475 75.3269 38.6398 76.2574 39.0321 77.1879 39.6118 78.0041 40.3335 78.6419 43.0781 80.9361 47.978 80.2787 49.6648 76.7221 50.1274 75.7015 50.3644 74.5716 50.3556 73.4273 50.3781 64.0238 50.4238 54.6203 50.3556 45.2177 50.3541 44.9487 50.3337 44.6803 50.2946 44.4149 50.2567 43.995 50.1402 43.5888 49.9526 43.2227 49.765 42.8566 49.5105 42.5387 49.2058 42.2899 48.9011 42.0411 48.5529 41.8669 48.184 41.7786 47.8151 41.6903 47.4336 41.6899 47.0646 41.7775 46.4397 42.0432 45.9079 42.5272 45.5482 43.1575 45.1884 43.7878 45.0198 44.531 45.0673 45.2769V73.6702L44.9955 74.0254 44.7946 74.3265 44.4922 74.5272 44.1333 74.5975 43.7744 74.5272 43.472 74.3265 43.271 74.0254 43.1993 73.6702C43.2136 64.1803 43.1445 54.6895 43.2136 45.2007Z" fill="#515ee3" fill-rule="evenodd"/><path clip-rule="evenodd" d="M43.2156 45.2089C43.1992 44.3935 43.3458 43.5843 43.6446 42.8403 43.9434 42.0963 44.3869 41.4364 44.9428 40.9085 45.7891 40.218 46.817 39.8628 47.8641 39.8991 48.9111 39.9355 49.9174 40.3613 50.7237 41.1093 51.2179 41.6449 51.6077 42.2891 51.8685 43.0013 52.1293 43.7136 52.2555 44.4785 52.2392 45.248 52.2583 54.6455 52.2583 64.0437 52.2392 73.4425 52.252 74.6383 52.0353 75.8233 51.6038 76.9175 51.1723 78.0117 50.5359 78.9895 49.7377 79.7851 48.1028 81.1953 46.0811 81.927 44.0176 81.8553 41.9541 81.7835 39.9768 80.9128 38.4235 79.3917 37.7099 78.5912 37.146 77.6396 36.7648 76.5927 36.3835 75.5458 36.1925 74.4244 36.2028 73.294 36.1732 62.2145 36.2324 51.135 36.2028 40.0555 36.2186 39.0272 36.0224 38.0086 35.6296 37.0787 35.2367 36.1488 34.6576 35.3326 33.9373 34.6934 31.46 32.626 27.2358 32.8869 25.2018 35.5966 24.3362 36.8223 23.8766 38.3453 23.9008 39.907 23.8756 49.3095 23.8326 58.712 23.9008 68.1145 23.9023 68.3835 23.9227 68.652 23.9618 68.9174 24.0007 69.3367 24.118 69.7422 24.3059 70.1076 24.4939 70.473 24.7483 70.7902 25.0528 71.0386 25.3573 71.287 25.705 71.4612 26.0735 71.5497 26.442 71.6383 26.823 71.6394 27.1918 71.5528 27.8189 71.2892 28.3529 70.8057 28.714 70.1746 29.0752 69.5435 29.244 68.7986 29.1954 68.0513V39.6641C29.2201 39.4185 29.3145 39.1882 29.4645 39.0068L29.7669 38.806 30.1258 38.7348 30.4847 38.806 30.7871 39.0068 30.9881 39.3078 31.0598 39.6631C31.0598 49.1379 31.0796 58.6147 31.0598 68.0904 31.0869 69.1024 30.8583 70.1024 30.4003 70.9756 29.9423 71.8488 29.2734 72.5598 28.4704 73.027 27.6065 73.4543 26.6467 73.5776 25.7187 73.3804 24.7907 73.1832 23.9382 72.675 23.2745 71.9231 22.458 70.8724 22.0171 69.5215 22.0363 68.1296 21.969 58.718 22.0112 49.3075 22.0363 39.8949 22.0231 38.6992 22.2397 37.5144 22.6715 36.4204 23.1032 35.3265 23.74 34.3491 24.5387 33.5543 27.8459 30.4021 34.062 30.8758 36.7187 35.0747 37.6205 36.5487 38.0925 38.2987 38.07 40.0846 38.2844 41.1594 38.0565 68.253 38.07 73.284 38.0512 74.3128 38.246 75.3325 38.6391 76.263 39.0322 77.1934 39.6129 78.0091 40.3355 78.6461 43.0846 80.9403 47.9916 80.2829 49.6829 76.7262 50.1461 75.7062 50.3834 74.5765 50.3747 73.4325 50.3971 64.03 50.4429 54.6274 50.3747 45.2259 50.3731 44.9569 50.3527 44.6885 50.3137 44.4231 50.2748 44.0037 50.1577 43.5981 49.9698 43.2326 49.7819 42.867 49.5275 42.5497 49.223 42.3012 48.9185 42.0527 48.5707 41.8784 48.2022 41.7898 47.8336 41.7012 47.4525 41.7001 47.0836 41.7867 46.4583 42.0518 45.926 42.5353 45.5657 43.1655 45.2055 43.7957 45.0364 44.539 45.0837 45.2851V73.6754L45.0119 74.0306 44.8109 74.3317 44.5085 74.5324 44.1497 74.6027 43.7908 74.5324 43.4884 74.3317 43.2874 74.0306 43.2156 73.6754C43.2156 64.1865 43.1465 54.6967 43.2156 45.2089Z" fill="#2fbec9" fill-rule="evenodd"/><g fill="#262848"><path d="M75.6733 73.944C75.3144 75.0681 74.6164 76.0171 73.6994 76.6276 72.6853 77.2815 71.5289 77.6078 70.3589 77.57 69.2524 77.5971 68.1579 77.308 67.1791 76.73 66.2761 76.167 65.5412 75.3192 65.0661 74.2923 64.5515 73.1501 64.2964 71.8838 64.3232 70.6051 64.2969 69.3263 64.5527 68.0599 65.0679 66.918 65.5409 65.8957 66.2769 65.0553 67.1809 64.5054 68.1492 63.9163 69.2381 63.6199 70.3401 63.6453 72.9965 63.6453 74.7138 64.7583 75.492 66.9842L74.5051 67.4549C74.2445 66.5678 73.7185 65.8082 73.0157 65.3042 72.2226 64.7909 71.3147 64.5423 70.3993 64.5877 69.4777 64.5676 68.5678 64.8222 67.7632 65.3253 67.006 65.8103 66.3963 66.5381 66.0127 67.4147 65.5767 68.4079 65.3613 69.504 65.3846 70.6101 65.3623 71.7183 65.569 72.8173 65.9885 73.8216 66.3756 74.6883 66.9761 75.4132 67.7193 75.911 68.5265 76.4045 69.4357 76.6517 70.3553 76.6276 71.3176 76.6596 72.2676 76.3809 73.0919 75.8247 73.8389 75.2981 74.3949 74.4923 74.6612 73.5506L75.6733 73.944Z"/><path d="M84.8089 63.6415C85.9385 63.6097 87.056 63.9075 88.0515 64.5055 88.9626 65.0494 89.7052 65.8891 90.1815 66.9141 90.6995 68.055 90.9554 69.3221 90.9262 70.6013 90.954 71.8867 90.6982 73.1599 90.1815 74.3085 89.6999 75.3324 88.9589 76.1747 88.0515 76.7301 87.0527 77.313 85.9377 77.6021 84.8115 77.5701 83.6792 77.6003 82.5583 77.3115 81.5519 76.7301 80.6522 76.1715 79.9177 75.3317 79.438 74.3135 78.9213 73.1649 78.6655 71.8917 78.6933 70.6063 78.6633 69.3255 78.9193 68.0565 79.438 66.9141 79.911 65.8936 80.6463 65.0547 81.5492 64.5055 82.5516 63.9098 83.674 63.6123 84.8089 63.6415V63.6415ZM84.8089 64.5838C83.8676 64.5584 82.9372 64.8129 82.1127 65.3214 81.3555 65.8064 80.7457 66.5343 80.3621 67.4109 79.9408 68.4088 79.734 69.503 79.7583 70.6063 79.7361 71.7145 79.9427 72.8134 80.3621 73.8177 80.7527 74.6889 81.3607 75.4147 82.1127 75.9072 82.9491 76.3786 83.8727 76.6242 84.8093 76.6242 85.7459 76.6242 86.6695 76.3786 87.506 75.9072 88.264 75.4234 88.874 74.6952 89.2565 73.8177 89.6905 72.8181 89.9057 71.7173 89.8845 70.6063 89.9079 69.5002 89.6924 68.4041 89.2565 67.4109 88.881 66.528 88.2692 65.7978 87.506 65.3214 86.6813 64.8124 85.7505 64.5575 84.8089 64.5828V64.5838Z"/><path d="M105.383 77.3652H104.135L97.0912 66.7543 96.1043 64.9479H96.0845L96.1446 66.6479V77.3652H95.1792V63.8459H96.447L103.47 74.4357 104.475 76.2592 104.436 74.5642V63.8459H105.382L105.383 77.3652Z"/><path d="M120.674 77.3652H119.426L112.383 66.7543 111.396 64.9479H111.376L111.436 66.6479V77.3652H110.471V63.8459H111.738L118.761 74.4357 119.767 76.2592 119.728 74.5642V63.8459H120.674V77.3652Z"/><path d="M135.158 76.4238V77.3662H125.761V63.8459H134.836V64.7883H126.767V70.0069H133.147V70.9694H126.767V76.4178L135.158 76.4238Z"/><path d="M149.14 73.9442C148.782 75.0683 148.084 76.0174 147.167 76.6277 146.153 77.2818 144.996 77.608 143.826 77.5701 142.72 77.5971 141.625 77.308 140.646 76.7301 139.743 76.1672 139.008 75.3194 138.533 74.2924 138.018 73.1503 137.763 71.884 137.789 70.6052 137.763 69.3265 138.018 68.0601 138.533 66.9181 139.006 65.8943 139.742 65.0525 140.646 64.5015 141.615 63.9123 142.704 63.6159 143.806 63.6414 146.463 63.6414 148.18 64.7544 148.958 66.9803L147.971 67.451C147.71 66.5641 147.184 65.8047 146.482 65.3003 145.689 64.787 144.781 64.5384 143.866 64.5838 142.944 64.5637 142.034 64.8182 141.23 65.3214 140.472 65.8063 139.862 66.5341 139.478 67.4109 139.044 68.4045 138.83 69.5005 138.855 70.6063 138.832 71.7143 139.039 72.8132 139.457 73.8177 139.845 74.6845 140.445 75.4094 141.188 75.9072 141.995 76.4006 142.905 76.6477 143.824 76.6237 144.787 76.6557 145.737 76.377 146.561 75.8208 147.308 75.2943 147.864 74.4885 148.13 73.5467L149.14 73.9442Z"/><path d="M162 64.7883H157.155V77.3652H156.149V64.7883H151.298V63.8459H162V64.7883Z"/><path d="M76.0499 55.7644V58.2874H66.3364V43.2839H69.0945V55.7644H76.0499Z"/><path d="M81.9974 58.2844H79.2393V43.2839H81.9974V58.2844Z"/><path d="M89.0843 45.8069V49.6025H94.7001V52.1516H89.0843V58.2884H86.3262V43.2839H96.1958V45.8069H89.0843Z"/><path d="M109.637 55.7644V58.2874H99.4658V43.2839H109.357V45.8069H102.221V49.5342H107.837V51.9428H102.221V55.7564L109.637 55.7644Z"/></g></svg>