<svg fill="none" height="114" viewBox="0 0 184 114" width="184" xmlns="http://www.w3.org/2000/svg" xmlns:xlink="http://www.w3.org/1999/xlink"><linearGradient id="lg1"><stop offset="0" stop-color="#0099c4"/><stop offset="1" stop-color="#8ed8f8"/></linearGradient><linearGradient id="paint0_linear_3234_4726" gradientUnits="userSpaceOnUse" x1="39.0739" x2="33.2748" xlink:href="#lg1" y1="56.6818" y2="48.3017"/><linearGradient id="lg2"><stop offset="0" stop-color="#52ba69"/><stop offset="1" stop-color="#d7e488"/></linearGradient><linearGradient id="paint1_linear_3234_4726" gradientUnits="userSpaceOnUse" x1="41.165" x2="48.4919" xlink:href="#lg2" y1="57.8924" y2="65.0234"/><linearGradient id="lg3"><stop offset="0" stop-color="#839dd1"/><stop offset="1" stop-color="#5b6ab1"/></linearGradient><linearGradient id="paint2_linear_3234_4726" gradientUnits="userSpaceOnUse" x1="33.9924" x2="38.3607" xlink:href="#lg3" y1="65.8033" y2="57.0928"/><linearGradient id="lg4"><stop offset="0" stop-color="#00af9d"/><stop offset="1" stop-color="#98d4c3"/></linearGradient><linearGradient id="paint3_linear_3234_4726" gradientUnits="userSpaceOnUse" x1="41.165" x2="48.4919" xlink:href="#lg4" y1="56.1076" y2="48.9765"/><linearGradient id="paint4_linear_3234_4726" gradientUnits="userSpaceOnUse" x1="39.3355" x2="59.0129" xlink:href="#lg2" y1="65.8973" y2="65.8973"/><linearGradient id="paint5_linear_3234_4726" gradientUnits="userSpaceOnUse" x1="45.0338" x2="54.7733" xlink:href="#lg4" y1="55.0535" y2="38.6316"/><linearGradient id="paint6_linear_3234_4726" gradientUnits="userSpaceOnUse" x1="33.4175" x2="30.2502" xlink:href="#lg1" y1="57.767" y2="38.3008"/><linearGradient id="paint7_linear_3234_4726" gradientUnits="userSpaceOnUse" x1="23.8507" x2="36.2911" xlink:href="#lg3" y1="73.9231" y2="61.3766"/><clipPath id="clip0_3234_4726"><path d="M22 38H162V76H22Z"/></clipPath><path d="M0 0H184V114H0Z" fill="#ffffff"/><g clip-path="url(#clip0_3234_4726)"><path d="M57.0678 57.7879C56.7646 57.4748 56.43 57.2243 56.0641 57.0052 56.4196 56.7755 56.7646 56.5251 57.0678 56.212 61.4383 51.7242 57.0678 39.9933 57.0678 39.9933 57.0678 39.9933 45.6294 35.5056 41.2695 39.9933 40.9767 40.3064 40.7362 40.6509 40.5062 41.0161 40.2866 40.6509 40.0357 40.296 39.743 39.9933 35.383 35.5056 23.9446 39.9933 23.9446 39.9933 23.9446 39.9933 19.5846 51.7451 23.9446 56.212 24.2478 56.5251 24.5824 56.7755 24.9483 57.0052 24.5928 57.2348 24.2478 57.4852 23.9446 57.7879 19.5846 62.2757 23.9446 74.0065 23.9446 74.0065 23.9446 74.0065 35.383 78.4943 39.743 74.0065 40.0357 73.6934 40.2866 73.349 40.5062 72.9837 40.7258 73.349 40.9767 73.7039 41.2695 74.0065 45.6399 78.4943 57.0678 74.0065 57.0678 74.0065 57.0678 74.0065 61.4383 62.2652 57.0678 57.7879Z" fill="#ffffff"/><path d="M41.6564 47.1426C38.3629 46.6626 34.6825 46.7565 32.6123 48.896 30.5317 51.0251 30.4376 54.8136 30.8976 58.1847 35.2994 57.9551 39.743 56.2121 39.743 56.2121 39.743 56.2121 41.4368 51.6513 41.6564 47.1322V47.1426Z" fill="url(#paint0_linear_3234_4726)"/><path d="M39.3457 66.8679C42.6392 67.348 46.3196 67.2437 48.3898 65.1146 50.4704 62.9855 50.5645 59.197 50.1045 55.8259 45.7027 56.0555 41.2591 57.7985 41.2591 57.7985 41.2591 57.7985 39.5653 62.3593 39.3457 66.8784V66.8679Z" fill="url(#paint1_linear_3234_4726)"/><path d="M32.6018 65.1145C32.6018 65.1145 37.1918 66.9096 41.6668 67.087 41.4891 62.4949 39.743 57.7775 39.743 57.7775 39.743 57.7775 35.153 55.9824 30.6885 55.8049 30.8662 60.3971 32.6123 65.1145 32.6123 65.1145H32.6018Z" fill="url(#paint2_linear_3234_4726)"/><path d="M41.2695 56.2119C41.2695 56.2119 45.8595 58.007 50.3345 58.1845 50.1568 53.5923 48.4107 48.8854 48.4107 48.8854 48.4107 48.8854 43.8207 47.0903 39.3457 46.9128 39.5234 51.505 41.2695 56.2119 41.2695 56.2119Z" fill="url(#paint3_linear_3234_4726)"/><path d="M57.0682 57.788C55.4266 56.0972 52.7709 55.6902 50.1152 55.8154 50.5857 59.1969 50.4812 62.975 48.411 65.1041 46.3303 67.2332 42.6499 67.3376 39.3564 66.8575 39.231 69.5919 39.6283 72.3054 41.2698 74.0066 45.6402 78.4944 57.0682 74.0066 57.0682 74.0066 57.0682 74.0066 61.4386 62.2653 57.0682 57.788Z" fill="url(#paint4_linear_3234_4726)"/><path d="M57.0682 39.9933C57.0682 39.9933 45.6298 35.5056 41.2698 39.9933 39.6701 41.6423 39.2519 44.2515 39.346 46.9129 43.821 47.0903 48.411 48.8854 48.411 48.8854 48.411 48.8854 50.157 53.5924 50.3348 58.1845 52.9278 58.2889 55.4789 57.8505 57.0786 56.212 61.449 51.7242 57.0786 39.9933 57.0786 39.9933H57.0682Z" fill="url(#paint5_linear_3234_4726)"/><path d="M32.602 48.8958C34.6722 46.7563 38.363 46.6624 41.6461 47.1425 41.782 44.4081 41.3742 41.6945 39.7327 39.9933 35.3727 35.5056 23.9343 39.9933 23.9343 39.9933 23.9343 39.9933 19.5744 51.7451 23.9343 56.212 25.5759 57.9027 28.2316 58.3097 30.8978 58.1845 30.4273 54.803 30.5214 51.0249 32.6125 48.8958H32.602Z" fill="url(#paint6_linear_3234_4726)"/><path d="M32.602 65.1146C32.602 65.1146 30.8559 60.4076 30.6782 55.805 28.0852 55.7007 25.534 56.139 23.9343 57.7776 19.5744 62.2654 23.9343 73.9962 23.9343 73.9962 23.9343 73.9962 35.3727 78.484 39.7327 73.9962 41.3324 72.3472 41.7611 69.738 41.6565 67.0767 37.1815 66.8888 32.5916 65.1041 32.5916 65.1041L32.602 65.1146Z" fill="url(#paint7_linear_3234_4726)"/><g fill="#3f3f3f"><path d="M66.0495 49.8457V55.5546H71.6014V49.8457H74.9577V64.718H71.6014V58.4977H66.0495V64.718H62.6724V49.8457H66.0495Z"/><path d="M83.9285 64.7076 83.7298 63.6222H83.6671C82.9561 64.478 81.8583 64.9477 80.5722 64.9477 78.387 64.9477 77.0801 63.3613 77.0801 61.6392 77.0801 58.8422 79.5999 57.4959 83.4266 57.5167V57.3602C83.4266 56.7862 83.1129 55.9721 81.461 55.9721 80.3527 55.9721 79.1816 56.3478 78.4811 56.7862L77.8642 54.6258C78.617 54.2083 80.1017 53.676 82.0674 53.676 85.6746 53.676 86.8142 55.7947 86.8142 58.3308V62.0776C86.8142 63.1108 86.856 64.1023 86.971 64.7076H83.9389 83.9285ZM83.5312 59.6145C81.7642 59.5936 80.3945 60.0111 80.3945 61.3157 80.3945 62.1715 80.9695 62.5994 81.7223 62.5994 82.5588 62.5994 83.2489 62.0463 83.4684 61.3574 83.5103 61.18 83.5312 60.9817 83.5312 60.7834V59.6145Z"/><path d="M91.5087 53.9265 92.3661 58.3412C92.5857 59.4684 92.8052 60.6582 92.983 61.8897H93.0248C93.2444 60.6582 93.558 59.4162 93.8194 58.3621L94.9695 53.9265H97.6252L98.7022 58.2264C98.9949 59.4371 99.2772 60.6582 99.4968 61.8897H99.5386C99.6954 60.6582 99.915 59.4371 100.155 58.2056L101.086 53.9265H104.38L101.065 64.7181H97.9075L96.8933 60.9191C96.632 59.8546 96.4333 58.8839 96.2033 57.5689H96.1615C95.9628 58.9153 95.7432 59.9067 95.4505 60.9191L94.3631 64.7181H91.2055L88.0688 53.9265H91.4983 91.5087Z"/><path d="M105.582 61.7749C106.199 62.1506 107.485 62.589 108.478 62.589 109.471 62.589 109.91 62.2341 109.91 61.681 109.91 61.1278 109.576 60.8669 108.321 60.4494 106.084 59.698 105.226 58.4873 105.247 57.2036 105.247 55.1998 106.972 53.676 109.649 53.676 110.904 53.676 112.033 53.9578 112.702 54.2918L112.106 56.6087C111.625 56.3478 110.695 55.993 109.764 55.993 108.948 55.993 108.478 56.3269 108.478 56.8801 108.478 57.3915 108.896 57.6524 110.224 58.1116 112.284 58.8213 113.141 59.8545 113.162 61.4409 113.162 63.4448 111.573 64.9268 108.478 64.9268 107.066 64.9268 105.801 64.6241 104.986 64.1753L105.582 61.7749Z"/><path d="M121.339 64.7076 121.14 63.6222H121.077C120.366 64.478 119.268 64.9477 117.982 64.9477 115.797 64.9477 114.49 63.3613 114.49 61.6392 114.49 58.8422 117.01 57.4959 120.837 57.5167V57.3602C120.837 56.7862 120.523 55.9721 118.871 55.9721 117.763 55.9721 116.592 56.3478 115.891 56.7862L115.274 54.6258C116.027 54.2083 117.512 53.676 119.478 53.676 123.085 53.676 124.224 55.7947 124.224 58.3308V62.0776C124.224 63.1108 124.266 64.1023 124.381 64.7076H121.349 121.339ZM120.941 59.6145C119.174 59.5936 117.805 60.0111 117.805 61.3157 117.805 62.1715 118.38 62.5994 119.133 62.5994 119.969 62.5994 120.659 62.0463 120.879 61.3574 120.92 61.18 120.941 60.9817 120.941 60.7834V59.6145Z"/><path d="M126.775 64.7075C126.817 63.9978 126.869 62.7037 126.869 61.4826V49.0525H130.226V55.2101H130.268C130.905 54.2813 132.035 53.6864 133.54 53.6864 136.123 53.6864 138.026 55.8259 138.005 59.1343 138.005 63.0168 135.527 64.958 133.059 64.958 131.805 64.958 130.581 64.4988 129.808 63.2151H129.766L129.63 64.718H126.775V64.7075ZM130.226 60.1154C130.226 60.3346 130.247 60.5329 130.288 60.7103 130.508 61.6183 131.282 62.2967 132.254 62.2967 133.687 62.2967 134.575 61.1904 134.575 59.2491 134.575 57.5688 133.822 56.2434 132.254 56.2434 131.344 56.2434 130.508 56.9322 130.288 57.9028 130.247 58.1011 130.226 58.2994 130.226 58.5186V60.1049 60.1154Z"/><path d="M146.223 64.7076 146.024 63.6222H145.962C145.251 64.478 144.153 64.9477 142.867 64.9477 140.681 64.9477 139.375 63.3613 139.375 61.6392 139.375 58.8422 141.894 57.4959 145.721 57.5167V57.3602C145.721 56.7862 145.407 55.9721 143.755 55.9721 142.647 55.9721 141.476 56.3478 140.776 56.7862L140.159 54.6258C140.911 54.2083 142.396 53.676 144.362 53.676 147.959 53.676 149.109 55.7947 149.109 58.3308V62.0776C149.109 63.1108 149.15 64.1023 149.265 64.7076H146.233 146.223ZM145.826 59.6145C144.059 59.5936 142.689 60.0111 142.689 61.3157 142.689 62.1715 143.264 62.5994 144.017 62.5994 144.853 62.5994 145.543 62.0463 145.763 61.3574 145.805 61.18 145.826 60.9817 145.826 60.7834V59.6145Z"/><path d="M151.743 49.0525H155.1V55.2101H155.141C155.497 54.7405 155.936 54.3961 156.469 54.1038 156.95 53.8429 157.598 53.6864 158.215 53.6864 160.359 53.6864 161.99 55.1684 161.99 58.4038V64.718H158.634V58.7795C158.634 57.3705 158.142 56.3999 156.887 56.3999 155.999 56.3999 155.455 56.9739 155.204 57.5688 155.121 57.788 155.089 58.0802 155.089 58.3203V64.718H151.733V49.0525H151.743Z"/></g></g></svg>